HIERARCHY
ROOT Hips
{
	OFFSET 0.000000 0.000000 0.000000
	CHANNELS 6 Xposition Yposition Zposition Xrotation Yrotation Zrotation
	JOINT LeftUpLeg_virtual
	{
		OFFSET 0.000000 0.000000 0.000000
		CHANNELS 3 Xrotation Yrotation Zrotation
		JOINT LeftUpLeg
		{
			OFFSET 10.205400 -3.823500 0.155100
			CHANNELS 3 Xrotation Yrotation Zrotation
			JOINT LeftLeg
			{
				OFFSET 0.708757 -12.982077 0.567790
				CHANNELS 3 Xrotation Yrotation Zrotation
				JOINT LeftFoot
				{
					OFFSET -0.708756 -10.717838 -2.184338
					CHANNELS 3 Xrotation Yrotation Zrotation
					JOINT LeftToeBase
					{
						OFFSET 0.108149 -7.191104 7.560241
						CHANNELS 3 Xrotation Yrotation Zrotation
						JOINT LeftToe_End
						{
							OFFSET 0.070230 0.081724 4.490308
							CHANNELS 3 Xrotation Yrotation Zrotation
							End Site
							{
								OFFSET 0 0 0
							}
						}
					}
				}
			}
		}
	}
	JOINT RightUpLeg_virtual
	{
		OFFSET 0.000000 0.000000 0.000000
		CHANNELS 3 Xrotation Yrotation Zrotation
		JOINT RightUpLeg
		{
			OFFSET -10.205400 -3.823500 0.005500
			CHANNELS 3 Xrotation Yrotation Zrotation
			JOINT RightLeg
			{
				OFFSET -0.708756 -12.982134 0.610632
				CHANNELS 3 Xrotation Yrotation Zrotation
				JOINT RightFoot
				{
					OFFSET 0.708754 -10.717769 -1.945823
					CHANNELS 3 Xrotation Yrotation Zrotation
					JOINT RightToeBase
					{
						OFFSET -0.108140 -7.191069 7.372968
						CHANNELS 3 Xrotation Yrotation Zrotation
						JOINT RightToe_End
						{
							OFFSET -0.070227 0.081735 4.479403
							CHANNELS 3 Xrotation Yrotation Zrotation
							End Site
							{
								OFFSET 0 0 0
							}
						}
					}
				}
			}
		}
	}
	JOINT Spine_virtual
	{
		OFFSET 0.000000 0.000000 0.000000
		CHANNELS 3 Xrotation Yrotation Zrotation
		JOINT Spine
		{
			OFFSET 0.000000 6.876099 0.125700
			CHANNELS 3 Xrotation Yrotation Zrotation
			JOINT Spine1
			{
				OFFSET 0.000000 5.730043 0.104720
				CHANNELS 3 Xrotation Yrotation Zrotation
				JOINT Spine1_split
				{
					OFFSET 0.000000 5.730043 0.104720
					CHANNELS 3 Xrotation Yrotation Zrotation
					JOINT Spine2
					{
						OFFSET 0.000000 5.730043 0.104720
						CHANNELS 3 Xrotation Yrotation Zrotation
						JOINT Neck_virtual
						{
							OFFSET 0.000000 0.000000 0.000000
							CHANNELS 3 Xrotation Yrotation Zrotation
							JOINT Neck
							{
								OFFSET 0.000000 10.314075 0.188496
								CHANNELS 3 Xrotation Yrotation Zrotation
								JOINT Head
								{
									OFFSET 0.000000 7.643700 -2.377400
									CHANNELS 3 Xrotation Yrotation Zrotation
									JOINT HeadTop_End
									{
										OFFSET 0.000000 43.788605 -13.619600
										CHANNELS 3 Xrotation Yrotation Zrotation
										End Site
										{
											OFFSET 0 0 0
										}
									}
								}
							}
						}
						JOINT LeftShoulder_virtual
						{
							OFFSET 0.000000 0.000000 0.000000
							CHANNELS 3 Xrotation Yrotation Zrotation
							JOINT LeftShoulder
							{
								OFFSET 2.196100 4.412489 0.087492
								CHANNELS 3 Xrotation Yrotation Zrotation
								JOINT LeftShoulder_split
								{
									OFFSET 2.196100 4.412489 0.087492
									CHANNELS 3 Xrotation Yrotation Zrotation
									JOINT LeftArm
									{
										OFFSET 8.771219 -2.981674 -0.026999
										CHANNELS 3 Xrotation Yrotation Zrotation
										JOINT LeftForeArm
										{
											OFFSET 8.512804 0.000000 -0.000000
											CHANNELS 3 Xrotation Yrotation Zrotation
											JOINT LeftHand
											{
												OFFSET 18.484802 0.000000 -0.000000
												CHANNELS 3 Xrotation Yrotation Zrotation
												End Site
												{
													OFFSET 0 0 0
												}
											}
										}
									}
								}
							}
						}
						JOINT RightShoulder_virtual
						{
							OFFSET 0.000000 0.000000 0.000000
							CHANNELS 3 Xrotation Yrotation Zrotation
							JOINT RightShoulder
							{
								OFFSET -2.196100 4.412496 0.070690
								CHANNELS 3 Xrotation Yrotation Zrotation
								JOINT RightShoulder_split
								{
									OFFSET -2.196100 4.412496 0.070690
									CHANNELS 3 Xrotation Yrotation Zrotation
									JOINT RightArm
									{
										OFFSET -8.771282 -2.981682 -0.094208
										CHANNELS 3 Xrotation Yrotation Zrotation
										JOINT RightForeArm
										{
											OFFSET -8.494598 0.000000 0.000000
											CHANNELS 3 Xrotation Yrotation Zrotation
											JOINT RightHand
											{
												OFFSET -18.483803 0.000000 0.000001
												CHANNELS 3 Xrotation Yrotation Zrotation
												End Site
												{
													OFFSET 0 0 0
												}
											}
										}
									}
								}
							}
						}
					}
				}
			}
		}
	}
}
MOTION
Frames: 9
Frame Time: 0.03333333
0.290976 25.294853 -3.148561 0.000000 0.000000 0.000000 7.488942 2.336140 -2.918700 41.693510 19.573070 5.165655 9.913661 -6.413412 6.337984 -50.986389 1.259585 -3.527845 -14.033038 0.000019 0.000003 0.000000 0.000000 0.000000 7.488942 2.336140 -2.918700 -79.324403 -1.619600 -2.383364 74.176073 -2.609607 0.018214 -2.304056 3.718166 -3.628258 1.048070 -0.022269 1.271065 0.000000 0.000000 0.000000 7.488942 2.336140 -2.918700 1.534608 -2.033243 1.373721 4.463941 -2.897045 3.069453 0.000000 0.000000 0.000000 0.000000 0.000000 0.000000 4.470552 -2.960904 2.997962 -6.646403 2.329847 -0.789044 -22.799701 6.183979 9.466398 0.000000 0.000000 0.000000 4.470552 -2.960904 2.997962 -0.863856 7.389829 -0.025959 0.000000 0.000000 0.000000 -11.563471 10.383931 -66.345521 179.999991 -64.819889 -179.999978 0.000000 0.000000 0.000000 4.470552 -2.960904 2.997962 0.518563 -7.917618 14.973066 0.000000 0.000000 0.000000 -19.108965 0.823939 54.260013 179.999964 65.206108 179.999991 0.000000 0.000000 0.000000 
0.291603 27.596775 -2.274474 0.000000 0.000000 0.000000 7.043409 5.631739 -1.472373 31.061969 14.984820 6.137945 22.285837 -3.419725 9.203431 -39.188658 2.793933 -4.601991 -32.297533 0.000043 0.000006 0.000000 0.000000 0.000000 7.043409 5.631739 -1.472373 -69.098360 -1.139960 -4.468131 68.202874 -3.733754 -0.443152 -6.077298 3.423976 -4.183571 1.027614 -0.021684 1.253389 0.000000 0.000000 0.000000 7.043409 5.631739 -1.472373 2.307354 -1.901662 1.797226 3.099219 -3.162405 2.168580 0.000000 0.000000 0.000000 0.000000 0.000000 0.000000 3.091627 -3.180354 2.120447 -5.647366 2.000597 -1.393999 -18.366983 3.484120 8.410583 0.000000 0.000000 0.000000 3.091627 -3.180354 2.120447 -0.472603 4.837145 -0.286809 0.000000 0.000000 0.000000 -18.246984 6.118564 -64.201114 179.999950 -68.040726 179.999964 0.000000 0.000000 0.000000 3.091627 -3.180354 2.120447 0.323431 -7.582996 12.788938 0.000000 0.000000 0.000000 -22.735704 4.589350 55.000546 179.999964 65.453143 179.999991 0.000000 0.000000 0.000000 
0.415785 29.723022 -1.684549 0.000000 0.000000 0.000000 5.837814 8.989077 -0.428502 13.524254 9.507305 8.237129 42.952778 3.178890 11.421133 -14.793375 4.802889 -12.007870 -47.071212 0.008233 -0.410143 0.000000 0.000000 0.000000 5.837814 8.989077 -0.428502 -58.749469 -1.089601 -5.774081 59.834404 -5.778793 -1.365561 -6.570318 3.161672 -4.883246 -0.192625 -0.000054 0.062531 0.000000 0.000000 0.000000 5.837814 8.989077 -0.428502 4.138281 -1.609736 2.786718 2.040742 -3.016034 1.391133 0.000000 0.000000 0.000000 0.000000 0.000000 0.000000 2.006032 -2.989534 1.398627 -4.440900 1.612599 -2.281643 -14.196190 -0.020069 7.284553 0.000000 0.000000 0.000000 2.006032 -2.989534 1.398627 0.068476 1.355720 -0.866094 0.000000 0.000000 0.000000 -25.917137 -0.435030 -62.080675 180.000005 -72.913991 179.999978 0.000000 0.000000 0.000000 2.006032 -2.989534 1.398627 0.210360 -5.995277 10.576191 0.000000 0.000000 0.000000 -27.995678 7.628504 54.628748 179.999950 66.269118 -179.999991 0.000000 0.000000 0.000000 
0.384528 31.457973 -1.451972 0.000000 0.000000 0.000000 4.288793 12.107937 0.228665 5.341882 7.227037 7.061429 42.375112 4.038564 7.010356 16.075113 -0.076086 -2.207227 -54.354854 9.812670 -18.146324 0.000000 0.000000 0.000000 4.288793 12.107937 0.228665 -51.256458 -0.618932 -6.973788 51.877271 -8.887076 -2.281226 -0.195006 2.266842 -2.025453 -5.836207 0.000039 0.000005 0.000000 0.000000 0.000000 4.288793 12.107937 0.228665 5.828664 -1.179520 3.610517 1.949359 -2.659796 0.899519 0.000000 0.000000 0.000000 0.000000 0.000000 0.000000 1.896970 -2.616142 0.938717 -3.296964 1.144835 -3.044795 -10.632059 -3.935966 6.843427 0.000000 0.000000 0.000000 1.896970 -2.616142 0.938717 0.568131 -2.178361 -0.867967 0.000000 0.000000 0.000000 -35.106698 -7.404363 -61.207060 -179.999991 -78.716762 -179.999991 0.000000 0.000000 0.000000 1.896970 -2.616142 0.938717 0.207311 -3.936305 8.797188 0.000000 0.000000 0.000000 -35.419131 9.963645 52.813423 179.999991 68.060854 179.999991 0.000000 0.000000 0.000000 
0.245810 32.783852 -1.017293 0.000000 0.000000 0.000000 2.999560 14.045835 0.508522 -2.995796 6.186717 6.482469 50.620967 1.635885 2.974238 31.627874 -0.740930 -0.622065 27.532452 3.800953 10.077993 0.000000 0.000000 0.000000 2.999560 14.045835 0.508522 -45.767400 -0.475373 -7.812158 46.256490 -8.674795 -2.198728 8.811140 -2.811444 3.354374 -14.593812 0.000098 0.000012 0.000000 0.000000 0.000000 2.999560 14.045835 0.508522 6.442575 -0.523802 4.158033 2.978386 -2.041429 0.410066 0.000000 0.000000 0.000000 0.000000 0.000000 0.000000 2.915021 -2.015024 0.447750 -2.420710 0.649273 -3.417442 -7.903156 -7.562122 7.271150 0.000000 0.000000 0.000000 2.915021 -2.015024 0.447750 1.014096 -5.352212 0.544292 0.000000 0.000000 0.000000 -45.652254 -13.589410 -61.251552 -179.999964 -84.906683 179.999950 0.000000 0.000000 0.000000 2.915021 -2.015024 0.447750 0.089332 -4.052601 7.037400 0.000000 0.000000 0.000000 -44.633599 13.796011 52.404753 179.999964 72.352570 179.999991 0.000000 0.000000 0.000000 
0.048252 33.922302 -0.408767 0.000000 0.000000 0.000000 2.406236 14.112311 0.648407 -13.258008 6.841915 6.376362 67.574039 1.463597 0.006222 30.322393 -0.642315 -0.991048 9.730684 -0.000015 -0.000003 0.000000 0.000000 0.000000 2.406236 14.112311 0.648407 -40.937015 -1.552936 -8.006980 38.336899 -8.154296 0.069383 17.892763 -1.118952 4.431013 -16.403965 0.000195 -0.011322 0.000000 0.000000 0.000000 2.406236 14.112311 0.648407 6.243748 0.231981 3.515360 4.448039 -1.372284 0.550577 0.000000 0.000000 0.000000 0.000000 0.000000 0.000000 4.392857 -1.358244 0.586389 -1.596936 0.485277 -3.771821 -5.934756 -9.578217 8.117678 0.000000 0.000000 0.000000 4.392857 -1.358244 0.586389 1.219298 -6.840143 2.759386 0.000000 0.000000 0.000000 -56.339608 -18.196319 -62.362714 0.000276 -88.669837 0.000257 0.000000 0.000000 0.000000 4.392857 -1.358244 0.586389 -0.418005 -6.889074 3.645333 0.000000 0.000000 0.000000 -55.571375 19.095901 56.081287 179.999964 80.569267 -179.999991 0.000000 0.000000 0.000000 
-0.023660 34.708084 0.217730 0.000000 0.000000 0.000000 1.622300 12.969133 0.940865 -22.748348 9.264441 5.811336 82.792309 2.239931 -1.506910 26.031258 -0.374701 -0.349788 10.496764 -0.000019 0.000002 0.000000 0.000000 0.000000 1.622300 12.969133 0.940865 -36.983599 -3.271586 -4.287148 29.768905 -4.323481 0.751762 23.955082 2.024736 -1.543850 -17.913098 0.002842 -0.035658 0.000000 0.000000 0.000000 1.622300 12.969133 0.940865 7.102741 0.814556 1.785739 5.162425 -0.950526 1.327611 0.000000 0.000000 0.000000 0.000000 0.000000 0.000000 5.114987 -0.892414 1.373416 -0.006645 0.754128 -4.132363 -4.747839 -9.463268 8.950178 0.000000 0.000000 0.000000 5.114987 -0.892414 1.373416 1.174583 -6.511890 5.488933 0.000000 0.000000 0.000000 -66.383387 -19.791064 -64.668620 -0.000061 -82.740987 -0.000017 0.000000 0.000000 0.000000 5.114987 -0.892414 1.373416 -1.198285 -9.446112 -1.192408 0.000000 0.000000 0.000000 -68.157611 22.444266 62.195088 0.000102 87.962311 0.000070 0.000000 0.000000 0.000000 
-0.123573 34.984226 0.766783 0.000000 0.000000 0.000000 -0.291380 11.821793 1.514545 -31.984816 12.130530 4.997678 96.650039 4.111343 -1.286480 21.686995 -0.090491 1.001219 10.864452 -0.000017 -0.000006 0.000000 0.000000 0.000000 -0.291380 11.821793 1.514545 -33.269653 -3.577485 0.225420 27.156964 1.653057 -0.531906 24.943257 1.936792 -3.667580 -17.899537 0.002603 -0.043869 0.000000 0.000000 0.000000 -0.291380 11.821793 1.514545 9.629957 0.897207 -0.077241 4.813433 -0.918604 1.966179 0.000000 0.000000 0.000000 0.000000 0.000000 0.000000 4.770638 -0.770863 2.017519 2.727765 1.227604 -4.117913 -3.972197 -7.847935 9.916274 0.000000 0.000000 0.000000 4.770638 -0.770863 2.017519 1.292857 -7.411989 7.174165 0.000000 0.000000 0.000000 -74.254702 -19.742213 -64.317965 -0.000004 -78.191746 -0.000014 0.000000 0.000000 0.000000 4.770638 -0.770863 2.017519 -1.509828 -6.959351 -7.781818 0.000000 0.000000 0.000000 -77.718216 19.877725 64.551530 -0.000025 77.932226 0.000001 0.000000 0.000000 0.000000 
-0.287363 34.729645 1.239291 0.000000 0.000000 0.000000 -2.934552 11.650158 2.232991 -42.378124 14.514873 3.881798 108.902920 7.133604 0.037197 19.261272 0.068121 3.124677 10.997505 -0.000010 0.000012 0.000000 0.000000 0.000000 -2.934552 11.650158 2.232991 -30.271392 -3.758764 1.292179 33.357940 1.323294 -0.601527 16.739930 1.904891 -4.883456 -19.095074 0.000114 0.000024 0.000000 0.000000 0.000000 -2.934552 11.650158 2.232991 12.412101 0.422203 -1.418707 4.378278 -1.227938 2.184095 0.000000 0.000000 0.000000 0.000000 0.000000 0.000000 4.349981 -0.997348 2.245317 5.525314 1.671867 -3.855086 -3.556288 -6.069798 11.031908 0.000000 0.000000 0.000000 4.349981 -0.997348 2.245317 1.681136 -8.837531 10.762846 0.000000 0.000000 0.000000 -80.175192 -17.035118 -63.387079 -0.000018 -76.684269 -0.000005 0.000000 0.000000 0.000000 4.349981 -0.997348 2.245317 -1.466471 -3.826225 -15.559763 0.000000 0.000000 0.000000 -83.463675 13.436016 64.734996 0.000026 73.211384 -0.000018 0.000000 0.000000 0.000000 
